<svg xmlns="http://www.w3.org/2000/svg" width="569" height="463" fill="none" viewBox="0 0 569 463"><path fill="currentColor" d="M455.07 19.42C395.25 34.15 354.85 69.17 323.22 113.15C291.27 157.57 268.85 210.16 244.3 260.27C220.12 309.63 193.76 356.79 154 386.19C113.41 416.2 60.37 426.74-14.57 406.54L-9.36 387.23C61.13 406.23 107.52 395.69 142.11 370.11C177.52 343.93 202.09 300.99 226.34 251.48C250.22 202.72 273.74 147.69 306.99 101.47C340.55 54.8 384.62 16.17 450.29 0L455.07 19.42Z"/><path stroke="currentColor" stroke-width="5" d="M-28.79 461.67C76.49 211.12 452.11 192.75 566.3 10.59"/></svg>
